<?xml version="1.0" encoding="UTF-8"?>
<svg version="1.1" xmlns="http://www.w3.org/2000/svg" width="60" height="53">
<path d="M0 0 C9.57 0 19.14 0 29 0 C29 8.58 29 17.16 29 26 C19.43 26 9.86 26 0 26 C0 17.42 0 8.84 0 0 Z " fill="#363334" transform="translate(31,27)"/>
<path d="M0 0 C9.57 0 19.14 0 29 0 C29 8.58 29 17.16 29 26 C19.43 26 9.86 26 0 26 C0 17.42 0 8.84 0 0 Z " fill="#FE0000" transform="translate(0,27)"/>
<path d="M0 0 C9.57 0 19.14 0 29 0 C29 8.58 29 17.16 29 26 C19.43 26 9.86 26 0 26 C0 17.42 0 8.84 0 0 Z " fill="#A8AAAD" transform="translate(31,0)"/>
<path d="M0 0 C9.57 0 19.14 0 29 0 C29 8.58 29 17.16 29 26 C19.43 26 9.86 26 0 26 C0 17.42 0 8.84 0 0 Z " fill="#F6F6F7" transform="translate(0,0)"/>
</svg>
